<svg width="76" height="76" viewBox="0 0 76 76" fill="none" xmlns="http://www.w3.org/2000/svg">
<circle cx="38" cy="38" r="38" fill="#E0DFDF"/>
<path d="M43.9061 43.9061L37.9314 37.9314V25.9841" stroke="#6E6E6E" stroke-width="4" stroke-miterlimit="10" stroke-linecap="round"/>
<path d="M37.922 55.844C42.6752 55.844 47.2337 53.9558 50.5947 50.5947C53.9558 47.2337 55.844 42.6752 55.844 37.922C55.844 33.1688 53.9558 28.6103 50.5947 25.2492C47.2337 21.8882 42.6752 20 37.922 20C33.1688 20 28.6103 21.8882 25.2492 25.2492C21.8882 28.6103 20 33.1688 20 37.922C20 42.6752 21.8882 47.2337 25.2492 50.5947C28.6103 53.9558 33.1688 55.844 37.922 55.844Z" stroke="#6E6E6E" stroke-width="4" stroke-linecap="round" stroke-linejoin="round"/>
</svg>
